<svg xmlns="http://www.w3.org/2000/svg" width="512" height="512" viewBox="0 0 512 512">
  <defs>
    <filter id="glow" x="-50%" y="-50%" width="200%" height="200%">
      <feGaussianBlur stdDeviation="4" result="blur"/>
      <feMerge>
        <feMergeNode in="blur"/>
        <feMergeNode in="SourceGraphic"/>
      </feMerge>
    </filter>
    <style>
      .s1 { stroke: #f3a6c6; stroke-width: 8; stroke-linecap: round; stroke-linejoin: round; filter:url(#glow); }
      .s2 { stroke: #d8b45b; stroke-width: 6; stroke-linecap: round; stroke-linejoin: round; filter:url(#glow); }
    </style>
  </defs>
  <g fill="none">
    <circle cx="256.0" cy="256.0" r="216" class="s1" /><circle cx="256.0" cy="256.0" r="164" class="s1" opacity="0.9"/><circle cx="256.0" cy="256.0" r="113" class="s2" opacity="0.85"/>
    <path d="M 477.00 256.43 L 459.00 256.39" class="s1" opacity="0.76"/><path d="M 470.16 321.67 L 446.26 314.34" class="s1" opacity="0.70"/><path d="M 444.17 371.90 L 422.04 358.26" class="s1" opacity="0.72"/><path d="M 403.16 414.11 L 386.81 396.55" class="s1" opacity="0.84"/><path d="M 362.44 448.54 L 350.34 426.66" class="s1" opacity="0.66"/><path d="M 309.99 472.36 L 304.67 451.02" class="s1" opacity="0.75"/><path d="M 250.71 477.94 L 251.24 455.94" class="s1" opacity="0.86"/><path d="M 195.43 465.42 L 201.26 445.24" class="s1" opacity="0.84"/><path d="M 139.43 446.11 L 154.07 422.24" class="s1" opacity="0.77"/><path d="M 92.56 407.71 L 107.95 393.42" class="s1" opacity="0.69"/><path d="M 64.83 360.78 L 85.88 349.24" class="s1" opacity="0.58"/><path d="M 39.69 305.95 L 66.98 299.65" class="s1" opacity="0.87"/><path d="M 40.07 250.49 L 58.06 250.95" class="s1" opacity="0.85"/><path d="M 42.07 189.59 L 67.86 197.59" class="s1" opacity="0.73"/><path d="M 66.54 136.50 L 84.30 147.70" class="s1" opacity="0.78"/><path d="M 99.71 98.34 L 119.42 118.23" class="s1" opacity="0.88"/><path d="M 150.94 66.13 L 159.66 81.88" class="s1" opacity="0.63"/><path d="M 205.60 45.96 L 211.44 70.27" class="s1" opacity="0.61"/><path d="M 256.47 32.00 L 256.43 50.00" class="s1" opacity="0.56"/><path d="M 316.12 43.34 L 309.05 68.35" class="s1" opacity="0.81"/><path d="M 369.50 69.88 L 358.57 87.81" class="s1" opacity="0.73"/><path d="M 417.92 104.12 L 404.06 117.12" class="s1" opacity="0.85"/><path d="M 445.95 151.08 L 422.31 164.13" class="s1" opacity="0.56"/><path d="M 471.09 205.22 L 444.81 211.43" class="s1" opacity="0.79"/>
    <path d="M 212.79 313.59 Q 147.79 275.78 195.21 217.41" class="s2" opacity="0.65"/><path d="M 189.34 226.23 Q 183.09 187.56 222.08 191.36" class="s2" opacity="0.73"/><path d="M 328.81 273.97 Q 333.77 335.20 272.65 329.13" class="s2" opacity="0.89"/><path d="M 241.80 327.61 Q 205.40 334.03 196.42 298.17" class="s2" opacity="0.70"/><path d="M 230.13 344.29 Q 155.01 329.66 164.03 253.66" class="s2" opacity="0.78"/>
    <circle cx="353.82" cy="160.09" r="5" fill="#f3a6c6" opacity="0.76"/><circle cx="422.96" cy="237.37" r="4" fill="#f3a6c6" opacity="0.75"/><circle cx="411.92" cy="274.34" r="4" fill="#f3a6c6" opacity="0.55"/><circle cx="381.85" cy="219.62" r="6" fill="#f3a6c6" opacity="0.66"/><circle cx="168.82" cy="141.39" r="3" fill="#f3a6c6" opacity="0.57"/><circle cx="282.75" cy="398.51" r="4" fill="#f3a6c6" opacity="0.77"/><circle cx="326.79" cy="145.77" r="5" fill="#f3a6c6" opacity="0.84"/><circle cx="133.10" cy="332.94" r="3" fill="#f3a6c6" opacity="0.57"/>
    <circle cx="256.0" cy="256.0" r="85" class="s1" fill="none"/><circle cx="341.00" cy="256.00" r="10" class="s2" fill="none"/><circle cx="256.00" cy="341.00" r="10" class="s2" fill="none"/><circle cx="171.00" cy="256.00" r="10" class="s2" fill="none"/><circle cx="256.00" cy="171.00" r="10" class="s2" fill="none"/><path d="M 226.0 256.0 H 286.0" class="s2" fill="none"/><path d="M 256.0 226.0 V 256.0 " />
  </g>
</svg>