<svg xmlns="http://www.w3.org/2000/svg" width="512" height="512" viewBox="0 0 512 512">
  <defs>
    <filter id="glow" x="-50%" y="-50%" width="200%" height="200%">
      <feGaussianBlur stdDeviation="4" result="blur"/>
      <feMerge>
        <feMergeNode in="blur"/>
        <feMergeNode in="SourceGraphic"/>
      </feMerge>
    </filter>
    <style>
      .s1 { stroke: #f3a6c6; stroke-width: 8; stroke-linecap: round; stroke-linejoin: round; filter:url(#glow); }
      .s2 { stroke: #d8b45b; stroke-width: 6; stroke-linecap: round; stroke-linejoin: round; filter:url(#glow); }
    </style>
  </defs>
  <g fill="none">
    <circle cx="256.0" cy="256.0" r="212" class="s1" /><circle cx="256.0" cy="256.0" r="162" class="s1" opacity="0.9"/><circle cx="256.0" cy="256.0" r="114" class="s2" opacity="0.85"/>
    <path d="M 475.91 262.43 L 450.92 261.70" class="s1" opacity="0.67"/><path d="M 465.11 321.06 L 443.15 314.23" class="s1" opacity="0.72"/><path d="M 449.31 369.17 L 426.01 355.53" class="s1" opacity="0.86"/><path d="M 413.60 415.18 L 399.52 400.97" class="s1" opacity="0.87"/><path d="M 365.56 446.78 L 354.60 427.70" class="s1" opacity="0.58"/><path d="M 310.69 467.03 L 303.66 439.92" class="s1" opacity="0.82"/><path d="M 251.16 478.95 L 251.72 452.95" class="s1" opacity="0.57"/><path d="M 192.99 466.78 L 199.86 443.79" class="s1" opacity="0.86"/><path d="M 141.34 447.26 L 152.65 428.39" class="s1" opacity="0.72"/><path d="M 97.84 404.58 L 110.96 392.25" class="s1" opacity="0.65"/><path d="M 61.90 363.74 L 84.63 351.13" class="s1" opacity="0.80"/><path d="M 46.86 310.01 L 69.13 304.26" class="s1" opacity="0.57"/><path d="M 39.16 247.63 L 59.15 248.40" class="s1" opacity="0.82"/><path d="M 41.32 195.66 L 66.35 202.69" class="s1" opacity="0.60"/><path d="M 66.67 143.96 L 83.02 153.64" class="s1" opacity="0.64"/><path d="M 104.56 92.31 L 122.90 112.13" class="s1" opacity="0.55"/><path d="M 146.76 63.89 L 160.60 88.23" class="s1" opacity="0.77"/><path d="M 202.28 39.57 L 208.54 64.80" class="s1" opacity="0.85"/><path d="M 261.81 36.08 L 261.15 61.07" class="s1" opacity="0.62"/><path d="M 319.00 49.39 L 312.29 71.39" class="s1" opacity="0.58"/><path d="M 365.58 68.70 L 352.96 90.28" class="s1" opacity="0.70"/><path d="M 415.15 101.22 L 398.66 117.26" class="s1" opacity="0.74"/><path d="M 448.87 154.38 L 427.63 165.57" class="s1" opacity="0.84"/><path d="M 465.18 202.14 L 439.03 208.87" class="s1" opacity="0.78"/>
    <path d="M 217.25 314.29 Q 166.89 309.62 186.34 262.93" class="s2" opacity="0.85"/><path d="M 182.94 295.38 Q 140.14 272.29 174.91 238.29" class="s2" opacity="0.75"/><path d="M 230.73 347.58 Q 178.72 355.52 173.53 303.16" class="s2" opacity="0.74"/><path d="M 333.61 309.04 Q 304.89 363.40 245.04 349.36" class="s2" opacity="0.72"/><path d="M 318.53 282.73 Q 305.26 341.87 247.51 323.47" class="s2" opacity="0.72"/>
    <circle cx="400.68" cy="308.77" r="6" fill="#f3a6c6" opacity="0.84"/><circle cx="270.85" cy="415.31" r="6" fill="#f3a6c6" opacity="0.68"/><circle cx="329.57" cy="373.94" r="5" fill="#f3a6c6" opacity="0.78"/><circle cx="149.18" cy="171.83" r="5" fill="#f3a6c6" opacity="0.86"/><circle cx="115.72" cy="270.24" r="4" fill="#f3a6c6" opacity="0.90"/><circle cx="287.91" cy="400.52" r="4" fill="#f3a6c6" opacity="0.87"/><circle cx="274.33" cy="86.99" r="4" fill="#f3a6c6" opacity="0.88"/><circle cx="325.04" cy="125.09" r="5" fill="#f3a6c6" opacity="0.82"/>
    <path d="M 256.0 166.0 V 326.0" class="s1" fill="none"/><path d="M 166.0 216.0 H 346.0" class="s2" fill="none"/><path d="M 186.0 216.0 Q 161.0 246.0 186.0 276.0 Q 211.0 246.0 186.0 216.0 Z" class="s1" fill="none" opacity="0.85"/><path d="M 326.0 216.0 Q 351.0 246.0 326.0 276.0 Q 301.0 246.0 326.0 216.0 Z" class="s1" fill="none" opacity="0.85"/>
  </g>
</svg>