<svg xmlns="http://www.w3.org/2000/svg" width="512" height="512" viewBox="0 0 512 512">
  <defs>
    <filter id="glow" x="-50%" y="-50%" width="200%" height="200%">
      <feGaussianBlur stdDeviation="4" result="blur"/>
      <feMerge>
        <feMergeNode in="blur"/>
        <feMergeNode in="SourceGraphic"/>
      </feMerge>
    </filter>
    <style>
      .s1 { stroke: #f3a6c6; stroke-width: 8; stroke-linecap: round; stroke-linejoin: round; filter:url(#glow); }
      .s2 { stroke: #d8b45b; stroke-width: 6; stroke-linecap: round; stroke-linejoin: round; filter:url(#glow); }
    </style>
  </defs>
  <g fill="none">
    <circle cx="256.0" cy="256.0" r="209" class="s1" /><circle cx="256.0" cy="256.0" r="169" class="s1" opacity="0.9"/><circle cx="256.0" cy="256.0" r="127" class="s2" opacity="0.85"/>
    <path d="M 479.84 264.38 L 459.86 263.63" class="s1" opacity="0.75"/><path d="M 462.96 317.85 L 436.13 309.83" class="s1" opacity="0.78"/><path d="M 446.12 366.71 L 426.24 355.13" class="s1" opacity="0.87"/><path d="M 405.20 416.31 L 388.85 398.74" class="s1" opacity="0.61"/><path d="M 358.17 446.31 L 346.34 424.28" class="s1" opacity="0.79"/><path d="M 312.49 471.73 L 306.16 447.54" class="s1" opacity="0.74"/><path d="M 252.22 473.97 L 252.53 455.97" class="s1" opacity="0.79"/><path d="M 194.06 468.14 L 199.67 448.95" class="s1" opacity="0.71"/><path d="M 145.71 441.72 L 157.97 421.09" class="s1" opacity="0.65"/><path d="M 97.85 410.37 L 110.73 397.80" class="s1" opacity="0.59"/><path d="M 58.70 362.06 L 78.08 351.65" class="s1" opacity="0.81"/><path d="M 41.63 305.46 L 68.91 299.16" class="s1" opacity="0.77"/><path d="M 35.13 248.57 L 58.11 249.34" class="s1" opacity="0.57"/><path d="M 43.37 192.19 L 69.23 199.95" class="s1" opacity="0.70"/><path d="M 65.54 141.94 L 88.71 155.81" class="s1" opacity="0.56"/><path d="M 100.64 96.03 L 117.36 113.24" class="s1" opacity="0.56"/><path d="M 150.40 64.14 L 163.90 88.67" class="s1" opacity="0.58"/><path d="M 200.77 42.01 L 206.27 63.31" class="s1" opacity="0.82"/><path d="M 260.18 38.04 L 259.76 60.04" class="s1" opacity="0.84"/><path d="M 315.54 43.17 L 310.69 60.51" class="s1" opacity="0.81"/><path d="M 372.06 64.41 L 359.11 85.80" class="s1" opacity="0.65"/><path d="M 417.83 101.12 L 401.21 117.02" class="s1" opacity="0.63"/><path d="M 448.05 148.69 L 426.23 160.88" class="s1" opacity="0.87"/><path d="M 466.57 203.56 L 444.25 209.12" class="s1" opacity="0.69"/>
    <path d="M 251.00 186.18 Q 313.49 176.63 323.90 238.98" class="s2" opacity="0.67"/><path d="M 180.86 276.94 Q 152.77 224.25 205.62 196.46" class="s2" opacity="0.78"/><path d="M 222.16 335.06 Q 165.07 329.63 171.63 272.65" class="s2" opacity="0.87"/><path d="M 188.01 308.66 Q 146.41 246.54 198.04 192.46" class="s2" opacity="0.84"/><path d="M 186.65 203.46 Q 190.11 158.11 233.43 171.98" class="s2" opacity="0.75"/>
    <circle cx="385.01" cy="360.47" r="3" fill="#f3a6c6" opacity="0.55"/><circle cx="123.40" cy="197.34" r="6" fill="#f3a6c6" opacity="0.76"/><circle cx="258.55" cy="417.98" r="3" fill="#f3a6c6" opacity="0.58"/><circle cx="403.19" cy="177.12" r="3" fill="#f3a6c6" opacity="0.58"/><circle cx="241.10" cy="118.81" r="4" fill="#f3a6c6" opacity="0.85"/><circle cx="133.01" cy="318.59" r="4" fill="#f3a6c6" opacity="0.85"/><circle cx="411.40" cy="200.54" r="4" fill="#f3a6c6" opacity="0.60"/><circle cx="405.80" cy="291.73" r="3" fill="#f3a6c6" opacity="0.69"/>
    <path d="M 256.0 346.0 V 246.0" class="s1" fill="none"/><path d="M 256.0 246.0 Q 216.0 206.0 171.0 181.0" class="s2" fill="none"/><path d="M 256.0 246.0 Q 296.0 206.0 341.0 181.0" class="s2" fill="none"/><circle cx="171.0" cy="181.0" r="10" class="s1" fill="none"/><circle cx="341.0" cy="181.0" r="10" class="s1" fill="none"/><circle cx="256.0" cy="246.0" r="12" class="s1" fill="none"/>
  </g>
</svg>