<svg xmlns="http://www.w3.org/2000/svg" width="512" height="512" viewBox="0 0 512 512">
  <defs>
    <filter id="glow" x="-50%" y="-50%" width="200%" height="200%">
      <feGaussianBlur stdDeviation="4" result="blur"/>
      <feMerge>
        <feMergeNode in="blur"/>
        <feMergeNode in="SourceGraphic"/>
      </feMerge>
    </filter>
    <style>
      .s1 { stroke: #f3a6c6; stroke-width: 8; stroke-linecap: round; stroke-linejoin: round; filter:url(#glow); }
      .s2 { stroke: #d8b45b; stroke-width: 6; stroke-linecap: round; stroke-linejoin: round; filter:url(#glow); }
    </style>
  </defs>
  <g fill="none">
    <circle cx="256.0" cy="256.0" r="216" class="s1" /><circle cx="256.0" cy="256.0" r="178" class="s1" opacity="0.9"/><circle cx="256.0" cy="256.0" r="121" class="s2" opacity="0.85"/>
    <path d="M 478.00 256.65 L 453.00 256.58" class="s1" opacity="0.72"/><path d="M 469.09 318.27 L 446.05 311.54" class="s1" opacity="0.65"/><path d="M 445.68 369.41 L 426.80 358.12" class="s1" opacity="0.65"/><path d="M 406.96 417.41 L 389.20 398.42" class="s1" opacity="0.83"/><path d="M 362.79 450.63 L 352.69 432.22" class="s1" opacity="0.83"/><path d="M 311.46 467.86 L 305.63 445.61" class="s1" opacity="0.67"/><path d="M 248.58 479.88 L 249.44 453.89" class="s1" opacity="0.69"/><path d="M 192.69 462.51 L 200.60 436.70" class="s1" opacity="0.83"/><path d="M 147.26 442.63 L 158.84 422.76" class="s1" opacity="0.86"/><path d="M 102.12 407.58 L 119.22 390.74" class="s1" opacity="0.76"/><path d="M 58.71 359.95 L 78.17 349.69" class="s1" opacity="0.83"/><path d="M 43.00 311.04 L 66.23 305.04" class="s1" opacity="0.75"/><path d="M 35.01 253.44 L 54.01 253.66" class="s1" opacity="0.79"/><path d="M 42.75 198.00 L 62.04 203.25" class="s1" opacity="0.66"/><path d="M 65.92 143.26 L 88.28 156.53" class="s1" opacity="0.85"/><path d="M 106.81 97.05 L 125.97 117.46" class="s1" opacity="0.60"/><path d="M 152.48 64.15 L 165.77 88.79" class="s1" opacity="0.61"/><path d="M 202.44 43.65 L 207.33 63.04" class="s1" opacity="0.83"/><path d="M 259.44 36.03 L 259.02 63.02" class="s1" opacity="0.59"/><path d="M 315.65 42.16 L 308.40 68.17" class="s1" opacity="0.86"/><path d="M 369.95 72.50 L 356.76 93.74" class="s1" opacity="0.84"/><path d="M 413.48 103.82 L 397.66 119.10" class="s1" opacity="0.75"/><path d="M 448.64 153.96 L 427.44 165.19" class="s1" opacity="0.75"/><path d="M 465.09 201.80 L 439.92 208.32" class="s1" opacity="0.68"/>
    <path d="M 295.79 324.25 Q 239.99 369.88 198.93 310.63" class="s2" opacity="0.65"/><path d="M 300.86 332.87 Q 249.34 372.81 202.69 327.26" class="s2" opacity="0.82"/><path d="M 189.97 216.40 Q 221.97 165.17 279.75 182.76" class="s2" opacity="0.82"/><path d="M 297.32 194.61 Q 355.81 214.74 328.61 270.29" class="s2" opacity="0.86"/><path d="M 166.01 254.58 Q 157.42 175.94 236.15 168.22" class="s2" opacity="0.68"/>
    <circle cx="346.69" cy="369.14" r="6" fill="#f3a6c6" opacity="0.72"/><circle cx="197.50" cy="375.44" r="5" fill="#f3a6c6" opacity="0.80"/><circle cx="415.97" cy="258.92" r="5" fill="#f3a6c6" opacity="0.58"/><circle cx="291.10" cy="418.25" r="6" fill="#f3a6c6" opacity="0.61"/><circle cx="111.01" cy="307.90" r="6" fill="#f3a6c6" opacity="0.85"/><circle cx="109.78" cy="271.14" r="5" fill="#f3a6c6" opacity="0.64"/><circle cx="397.76" cy="206.96" r="5" fill="#f3a6c6" opacity="0.87"/><circle cx="392.38" cy="154.51" r="6" fill="#f3a6c6" opacity="0.73"/>
    <path d="M 136.0 256.0 Q 256.0 176.0 376.0 256.0 Q 256.0 336.0 136.0 256.0 Z" class="s1" fill="none"/><circle cx="256.0" cy="256.0" r="42" class="s2" fill="none"/><circle cx="256.0" cy="256.0" r="14" fill="#d8b45b" opacity="0.85"/>
  </g>
</svg>