<svg xmlns="http://www.w3.org/2000/svg" width="512" height="512" viewBox="0 0 512 512">
  <defs>
    <filter id="glow" x="-50%" y="-50%" width="200%" height="200%">
      <feGaussianBlur stdDeviation="4" result="blur"/>
      <feMerge>
        <feMergeNode in="blur"/>
        <feMergeNode in="SourceGraphic"/>
      </feMerge>
    </filter>
    <style>
      .s1 { stroke: #f3a6c6; stroke-width: 8; stroke-linecap: round; stroke-linejoin: round; filter:url(#glow); }
      .s2 { stroke: #d8b45b; stroke-width: 6; stroke-linecap: round; stroke-linejoin: round; filter:url(#glow); }
    </style>
  </defs>
  <g fill="none">
    <circle cx="256.0" cy="256.0" r="204" class="s1" /><circle cx="256.0" cy="256.0" r="168" class="s1" opacity="0.9"/><circle cx="256.0" cy="256.0" r="129" class="s2" opacity="0.85"/>
    <path d="M 479.96 260.44 L 453.96 259.92" class="s1" opacity="0.70"/><path d="M 471.77 316.15 L 448.66 309.70" class="s1" opacity="0.75"/><path d="M 441.02 371.29 L 423.19 360.19" class="s1" opacity="0.74"/><path d="M 405.47 414.69 L 393.13 401.59" class="s1" opacity="0.87"/><path d="M 363.83 450.05 L 355.09 434.32" class="s1" opacity="0.86"/><path d="M 306.76 471.09 L 301.02 446.76" class="s1" opacity="0.77"/><path d="M 249.02 479.89 L 249.61 460.90" class="s1" opacity="0.88"/><path d="M 192.53 466.64 L 199.45 443.66" class="s1" opacity="0.77"/><path d="M 145.81 444.10 L 157.94 423.39" class="s1" opacity="0.81"/><path d="M 100.52 408.80 L 116.21 393.38" class="s1" opacity="0.86"/><path d="M 66.67 364.06 L 84.91 353.65" class="s1" opacity="0.61"/><path d="M 41.82 310.48 L 66.05 304.32" class="s1" opacity="0.79"/><path d="M 39.12 248.91 L 66.10 249.79" class="s1" opacity="0.73"/><path d="M 46.77 198.47 L 72.80 205.62" class="s1" opacity="0.66"/><path d="M 71.51 141.76 L 92.76 154.92" class="s1" opacity="0.69"/><path d="M 104.20 96.77 L 122.14 115.58" class="s1" opacity="0.69"/><path d="M 152.98 66.15 L 163.95 86.37" class="s1" opacity="0.65"/><path d="M 203.83 40.22 L 210.18 66.46" class="s1" opacity="0.59"/><path d="M 261.75 36.08 L 261.26 55.07" class="s1" opacity="0.65"/><path d="M 313.70 46.81 L 308.11 67.06" class="s1" opacity="0.70"/><path d="M 367.88 65.41 L 357.75 82.66" class="s1" opacity="0.80"/><path d="M 413.28 102.18 L 398.27 116.86" class="s1" opacity="0.69"/><path d="M 451.37 148.48 L 426.84 161.98" class="s1" opacity="0.80"/><path d="M 473.16 205.29 L 455.63 209.39" class="s1" opacity="0.67"/>
    <path d="M 289.65 188.97 Q 338.02 185.74 327.40 233.04" class="s2" opacity="0.88"/><path d="M 214.25 185.42 Q 260.46 148.09 303.42 189.11" class="s2" opacity="0.77"/><path d="M 307.64 210.24 Q 352.37 219.64 325.00 256.25" class="s2" opacity="0.72"/><path d="M 216.58 313.84 Q 179.18 316.85 190.67 281.14" class="s2" opacity="0.83"/><path d="M 267.63 175.84 Q 335.87 189.39 336.95 258.96" class="s2" opacity="0.64"/>
    <circle cx="100.34" cy="192.81" r="6" fill="#f3a6c6" opacity="0.72"/><circle cx="153.72" cy="126.53" r="6" fill="#f3a6c6" opacity="0.86"/><circle cx="125.71" cy="175.79" r="3" fill="#f3a6c6" opacity="0.72"/><circle cx="276.46" cy="125.60" r="6" fill="#f3a6c6" opacity="0.82"/><circle cx="94.65" cy="241.46" r="5" fill="#f3a6c6" opacity="0.86"/><circle cx="146.57" cy="374.10" r="3" fill="#f3a6c6" opacity="0.56"/><circle cx="211.18" cy="100.32" r="6" fill="#f3a6c6" opacity="0.70"/><circle cx="169.48" cy="372.36" r="3" fill="#f3a6c6" opacity="0.76"/>
    <path d="M 161.0 201.0 H 351.0 V 321.0 H 161.0 Z" class="s1" fill="none"/><path d="M 161.0 201.0 L 256.0 266.0 L 351.0 201.0" class="s2" fill="none"/><path d="M 161.0 321.0 L 256.0 256.0 L 351.0 321.0" class="s2" fill="none" opacity="0.75"/>
  </g>
</svg>